<?xml version="1.0" standalone="no"?>
<!DOCTYPE svg PUBLIC "-//W3C//DTD SVG 20010904//EN"
 "http://www.w3.org/TR/2001/REC-SVG-20010904/DTD/svg10.dtd">
<svg version="1.0" xmlns="http://www.w3.org/2000/svg"
 width="1379.000000pt" height="1379.000000pt" viewBox="0 0 1379.000000 1379.000000"
 preserveAspectRatio="xMidYMid meet">
<metadata>
Created by potrace 1.14, written by Peter Selinger 2001-2017
</metadata>
<g transform="translate(0.000000,1379.000000) scale(0.100000,-0.100000)"
fill="#000000" stroke="none">
<path d="M1102 11225 l3 -126 65 -23 c166 -58 302 -148 455 -301 92 -92 235
-275 235 -300 0 -4 9 -20 21 -36 28 -39 179 -345 179 -362 0 -7 4 -17 9 -22 5
-6 75 -181 156 -390 81 -209 176 -453 211 -543 35 -90 64 -166 64 -169 0 -3 6
-19 14 -36 8 -18 76 -192 151 -387 76 -195 180 -465 233 -600 52 -135 105
-272 117 -305 13 -33 87 -224 165 -425 78 -201 162 -419 186 -485 24 -66 57
-151 73 -190 56 -134 121 -302 121 -309 0 -5 7 -22 15 -39 14 -32 241 -617
396 -1022 44 -115 84 -219 90 -230 5 -11 45 -114 89 -230 44 -115 84 -219 89
-230 5 -11 88 -225 185 -475 96 -250 181 -468 187 -485 7 -16 13 -32 14 -35 3
-12 46 -127 55 -145 19 -41 160 -413 160 -423 0 -5 20 -57 44 -114 24 -56 63
-149 87 -206 l43 -103 88 4 c49 2 93 8 98 13 6 6 48 106 95 224 47 118 90 224
95 235 5 11 41 101 80 200 39 99 75 189 80 200 31 69 364 909 395 995 31 90
87 237 115 305 5 11 52 135 106 275 212 560 323 846 337 875 22 43 97 238 93
242 -2 2 36 106 84 231 l87 227 1191 2 1191 2 31 -82 c18 -45 58 -156 91 -247
99 -275 132 -365 139 -375 4 -5 24 -57 44 -115 21 -58 41 -114 46 -125 5 -11
20 -54 35 -95 15 -41 40 -109 56 -150 26 -71 93 -250 279 -755 113 -305 209
-565 295 -795 116 -312 145 -423 150 -590 4 -115 3 -130 -20 -184 -13 -32 -34
-69 -47 -83 -105 -112 -350 -184 -713 -208 -43 -3 -81 -8 -83 -10 -3 -3 -5
-145 -3 -218 l1 -28 68 6 c243 21 686 29 1547 29 855 0 1269 -8 1533 -29 50
-4 72 -3 72 5 0 6 4 9 8 6 5 -3 9 1 9 9 0 8 -4 12 -9 9 -13 -8 -9 41 5 55 9
11 9 13 0 7 -8 -4 -13 -1 -13 8 0 8 6 17 13 19 9 4 9 6 0 6 -7 1 -13 13 -13
27 0 14 4 23 10 19 6 -3 10 -1 10 4 0 6 -4 11 -10 11 -5 0 -10 14 -10 30 0 17
-5 30 -12 31 -158 10 -401 137 -528 277 -103 112 -206 293 -293 517 -19 50
-121 313 -227 585 -212 548 -210 541 -309 795 -113 290 -302 775 -326 840 -23
61 -277 715 -342 880 -19 50 -125 322 -235 605 -200 517 -267 688 -358 920
-26 69 -102 265 -169 435 -463 1194 -602 1552 -610 1570 -5 11 -87 220 -181
465 -95 245 -178 459 -185 475 -7 17 -32 81 -56 144 l-43 113 -318 -4 c-175
-3 -323 -9 -328 -14 -8 -8 -151 -380 -555 -1444 -207 -543 -263 -691 -329
-862 -25 -65 -136 -357 -212 -558 -23 -63 -64 -169 -90 -235 -25 -66 -49 -133
-53 -150 -5 -16 -44 -120 -88 -230 -44 -110 -154 -395 -244 -632 l-164 -433
-1391 0 c-1316 0 -1392 1 -1399 18 -4 9 -20 53 -37 97 -17 44 -38 100 -48 125
-9 25 -43 113 -74 195 -31 83 -61 159 -66 170 -5 11 -28 70 -50 130 -23 61
-53 139 -67 175 -14 36 -26 72 -28 80 -4 22 -81 224 -95 250 -7 12 -22 50 -35
84 -23 62 -51 134 -170 446 -102 266 -157 412 -214 560 -28 74 -56 144 -61
155 -22 47 -123 345 -154 458 -36 126 -71 285 -81 372 -4 28 -8 61 -11 75 -6
32 -6 279 -1 305 3 11 8 40 12 65 13 78 59 199 90 237 5 7 23 30 40 51 37 48
103 101 177 140 142 77 456 141 741 151 l27 1 0 125 0 125 -97 -6 c-54 -3
-127 -7 -163 -9 -410 -25 -1864 -25 -2025 -1 -16 3 -54 7 -83 11 l-53 5 3
-125z m6973 -1811 c50 -136 100 -272 111 -303 12 -31 36 -96 54 -146 17 -49
36 -99 41 -110 5 -11 22 -58 39 -105 17 -47 34 -94 39 -105 5 -11 27 -69 49
-130 22 -60 86 -234 142 -385 56 -151 126 -342 157 -425 30 -82 68 -184 84
-225 34 -91 163 -441 180 -490 7 -19 16 -44 20 -55 5 -11 22 -55 38 -97 l29
-78 -1094 0 c-602 0 -1094 3 -1094 6 0 7 75 206 272 719 54 143 109 285 120
315 12 30 26 69 33 85 7 17 18 46 25 65 13 36 15 44 49 124 12 27 21 53 21 58
0 6 6 24 14 41 8 18 31 77 51 132 21 55 43 114 50 130 23 55 125 324 125 330
0 3 8 25 19 48 10 23 35 87 55 142 21 55 48 127 61 160 13 33 39 101 58 150
19 50 61 159 93 243 32 83 60 152 63 152 3 0 47 -111 96 -246z m-1765 -2920
c0 -9 -6 -30 -14 -47 -8 -18 -82 -212 -165 -432 -84 -220 -156 -409 -161 -420
-5 -11 -39 -101 -76 -200 -36 -99 -72 -193 -79 -210 -7 -16 -34 -86 -59 -155
-26 -69 -51 -134 -55 -145 -5 -11 -23 -56 -39 -100 -368 -968 -525 -1383 -579
-1530 -81 -224 -91 -239 -111 -167 -6 20 -26 80 -45 132 -20 52 -74 205 -122
340 -47 135 -98 277 -112 315 -13 39 -29 81 -33 95 -5 14 -40 113 -78 220 -39
107 -111 310 -160 450 -170 481 -201 565 -250 700 -27 74 -66 180 -86 235 -21
55 -41 109 -46 120 -5 11 -19 45 -30 75 -11 30 -24 64 -29 75 -5 11 -26 65
-46 120 -46 123 -69 183 -135 355 -29 74 -56 147 -60 162 l-8 27 1289 0 c1162
0 1289 -1 1289 -15z"/>
</g>
</svg>
